# AST/ASF file generated using VICON BodyLanguage
# -----------------------------------------------
:version 1.10
:name VICON
:units
  mass 1.0
  length 0.45
  angle deg
:documentation
   .ast/.asf automatically generated from VICON data using
   VICON BodyBuilder and BodyLanguage model FoxedUp or BRILLIANT.MOD
:root
   order TX TY TZ RX RY RZ
   axis XYZ
   position 0 0 0  
   orientation 0 0 0 
:bonedata
  begin
     id 1 
     name lhipjoint
     direction 0.543289 -0.788407 0.288535 
     length 2.57127 
     axis 0 0 0  XYZ
  end
  begin
     id 2 
     name lfemur
     direction 0.34202 -0.939693 0  
     length 8.47298  
     axis 0 0 20  XYZ
    dof rx ry rz
    limits (-160.0 20.0)
           (-70.0 70.0)
           (-60.0 70.0)
  end
  begin
     id 3 
     name ltibia
     direction 0.34202 -0.939693 0   
     length 8.13367   
     axis 0 0 20   XYZ
    dof rx
    limits (-10.0 170.0)
  end
  begin
     id 4 
     name lfoot
     direction 0.114037 -0.313314 0.942778   
     length 2.67113   
     axis -90 7.62852e-016 20   XYZ
    dof rx rz
    limits (-45.0 90.0)
           (-70.0 20.0)
  end
  begin
     id 5 
     name ltoes
     direction 1.536e-011 -4.21847e-011 1   
     length 1.32217   
     axis -90 7.62852e-016 20   XYZ
    dof rx
    limits (-90.0 20.0)
  end
  begin
     id 6 
     name rhipjoint
     direction -0.571293 -0.770752 0.282074   
     length 2.63017  
     axis 0 0 0  XYZ 
  end
  begin
     id 7 
     name rfemur
     direction -0.34202 -0.939693 0   
     length 8.60885   
     axis 0 0 -20   XYZ
    dof rx ry rz
    limits (-160.0 20.0)
           (-70.0 70.0)
           (-70.0 60.0)
  end
  begin
     id 8 
     name rtibia
     direction -0.34202 -0.939693 0   
     length 8.07673   
     axis 0 0 -20   XYZ
    dof rx
    limits (-10.0 170.0)
 end
 begin
     id 9 
     name rfoot
     direction -0.121336 -0.333368 0.934956   
     length 2.81602  
     axis -90 -7.62852e-016 -20   XYZ
    dof rx rz
    limits (-45.0 90.0)
           (-20.0 70.0)
  end
  begin
     id 10 
     name rtoes
     direction -1.53491e-011 -4.21808e-011 1   
     length 1.38905   
     axis -90 -7.62852e-016 -20   XYZ
    dof rx
    limits (-90.0 20.0)
  end
  begin
     id 11 
     name lowerback
     direction 0.0136776 0.999869 -0.00861835   
     length 2.14087   
     axis 0 0 0   XYZ
    dof rx ry rz
    limits (-20.0 45.0)
           (-30.0 30.0)
           (-30.0 30.0)
  end
  begin
     id 12 
     name upperback
     direction -0.00789158 0.999804 0.0181308   
     length 2.14151   
     axis 0 0 0   XYZ
    dof rx ry rz
    limits (-20.0 45.0)
           (-30.0 30.0)
           (-30.0 30.0)
  end
  begin
     id 13 
     name thorax
     direction -0.0135231 0.999666 0.0220247   
     length 2.13644   
     axis 0 0 0   XYZ
    dof rx ry rz
    limits (-20.0 45.0)
           (-30.0 30.0)
           (-30.0 30.0)
  end
  begin
     id 14 
     name lowerneck
     direction -0.0392259 0.997317 0.0618018   
     length 1.65045   
     axis 0 0 0   XYZ
    dof rx ry rz
    limits (-20.0 45.0)
           (-30.0 30.0)
           (-30.0 30.0)
  end
  begin
     id 15 
     name upperneck
     direction 0.0765547 0.994276 -0.0745319   
     length 1.66045   
     axis 0 0 0   XYZ
    dof rx ry rz
    limits (-20.0 45.0)
           (-30.0 30.0)
           (-30.0 30.0)
  end
  begin
     id 16
     name head
     direction 0.0241564 0.999031 -0.036785  
     length 1.66594  
     axis 0 0 0   XYZ
    dof rx ry rz
    limits (-20.0 45.0)
           (-30.0 30.0)
           (-30.0 30.0)
  end
  begin
     id 17 
     name lclavicle
     direction 0.967398 0.249018 0.0461573  
     length 3.75176  
     axis 0 0 0   XYZ
    dof ry rz
    limits (-20.0 10.0)
           (0.0 20.0)
  end
  begin
     id 18 
     name lhumerus
     direction 1 -4.48963e-011 -3.05005e-027   
     length 5.93342   
     axis 180 -30 -90   XYZ
    dof rx ry rz
    limits (-60.0 90.0)
           (-90.0 90.0)
           (-90.0 90.0)
  end
  begin
     id 19
     name lradius
     direction 1 -4.48957e-011 1.07006e-026   
     length 3.94763   
     axis 180 -30 -90   XYZ
    dof rx
    limits (-10.0 170.0)
  end
  begin
     id 20
     name lwrist
     direction 1 -4.48978e-011 1.92422e-026   
     length 1.97382   
     axis -1.18182e-014 90 90   XYZ
    dof ry
    limits (-180.0 0.0)
 end
  begin
     id 21 
     name lhand
     direction 1 -4.48931e-011 3.84844e-026   
     length 0.560187   
     axis -2.45563e-014 90 90   XYZ
    dof rx rz
    limits (-90.0 90.0)
           (-45.0 45.0)
  end
  begin
     id 22 
     name lfingers
     direction 1 -4.48952e-011 7.69687e-026   
     length 0.451637   
     axis -4.91126e-014 90 90   XYZ
    dof rx
    limits (0.0 90.0)
  end
  begin
     id 23
     name lthumb
     direction 0.707107 -6.34901e-011 0.707107   
     length 0.648463   
     axis -90 45 2.85299e-015   XYZ
    dof rx rz
    limits (-45.0 45.0)
           (-45.0 45.0)
  end
  begin
     id 24 
     name rclavicle
     direction -0.965946 0.258716 0.00371831   
     length 3.63667  
     axis 0 0 0   XYZ 
    dof ry rz
    limits (-10.0 20.0)
           (-20.0 0.0)
  end
  begin
     id 25 
     name rhumerus
     direction -1 -4.48966e-011 -1.78361e-028  
     length 6.28647   
     axis 180 30 90   XYZ
    dof rx ry rz
    limits (-90.0 60.0)
           (-90.0 90.0)
           (-90.0 90.0)
  end
  begin
     id 26 
     name rradius
     direction -1 -4.48961e-011 1.05248e-026   
     length 3.81645   
     axis 180 30 90   XYZ
    dof rx
    limits (-10.0 170.0)
  end
  begin
     id 27 
     name rwrist
     direction -1 -4.48979e-011 1.92422e-026   
     length 1.90822   
     axis -1.18182e-014 -90 -90   XYZ
    dof ry
    limits (-180.0 0.0)
  end
  begin
     id 28
     name rhand
     direction -1 -4.48937e-011 3.84844e-026   
     length 0.646185   
     axis -2.45563e-014 -90 -90   XYZ
    dof rx rz
    limits (-90.0 90.0)
           (-45.0 45.0)
  end
  begin
     id 29
     name rfingers
     direction -1 -4.48953e-011 7.69687e-026   
     length 0.520971   
     axis -4.91126e-014 -90 -90   XYZ
    dof rx
    limits (0.0 90.0)
  end
  begin
     id 30
     name rthumb
     direction -0.707107 -6.3494e-011 0.707107   
     length 0.748013   
     axis -90 -45 -2.85299e-015   XYZ
    dof rx rz
    limits (-45.0 45.0)
           (-45.0 45.0)
  end
:hierarchy
  begin
    root lhipjoint rhipjoint lowerback
    lhipjoint lfemur
    lfemur ltibia
    ltibia lfoot
    lfoot ltoes
    rhipjoint rfemur
    rfemur rtibia
    rtibia rfoot
    rfoot rtoes
    lowerback upperback
    upperback thorax
    thorax lowerneck lclavicle rclavicle
    lowerneck upperneck
    upperneck head
    lclavicle lhumerus
    lhumerus lradius
    lradius lwrist
    lwrist lhand lthumb
    lhand lfingers
    rclavicle rhumerus
    rhumerus rradius
    rradius rwrist
    rwrist rhand rthumb
    rhand rfingers
  end

#!OML:ASF H:\HAZMAT1\Patient Classification 1\Patient 3\Session 1\dancer.ASF
:FULLY-SPECIFIED
:DEGREES
1
upperback 0.041736 -17.299601 -1.102310
rfoot -20.437901 -17.570299
lradius 22.195101
lthumb 26.260201 47.390900
rradius 27.284599
lwrist 15.740100
rhand 4.178730 -20.108601
rhumerus -32.595100 6.807850 -23.559500
lowerneck -3.395280 -2.175360 -1.235930
lhand 0.699460 19.188200
ltibia 27.871500
head 0.793300 -1.170470 3.267780
rwrist 7.645980
lfingers 7.125020
rtoes -7.814490
lowerback 1.502040 -12.876500 -2.397920
rfingers 7.125020
lclavicle -0.000000 -0.000000
upperneck 0.098995 -2.742630 9.644810
rfemur -47.862598 6.267860 5.480070
thorax -0.425362 -8.669070 0.398474
rclavicle -0.000000 -0.000000
rtibia 57.668900
lfoot -14.311900 19.729300
lhumerus 36.584301 -7.812020 93.444702
rthumb 29.586300 -47.769901
root 7.757530 17.614500 0.392767 -165.772003 -15.585800 -177.574997
ltoes -7.052620
lfemur -9.500680 5.046220 10.350600
2
upperback 0.102873 -5.903710 0.101877
rfoot -24.939199 -17.285101
lradius 16.401800
lthumb 12.754600 64.105400
rradius 12.867000
lwrist -9.947440
rhand -9.637130 -23.183300
rhumerus -14.354700 26.760401 -79.945702
lowerneck -6.033880 -0.433728 1.420600
lhand -13.351200 34.514999
ltibia 32.017601
head 6.802120 -0.901750 -0.852452
rwrist 41.190498
lfingers 7.125020
rtoes -6.678500
lowerback 0.638929 -4.450920 4.510310
rfingers 7.125020
lclavicle 0.000000 0.000000
upperneck 19.135201 -1.232620 -1.516230
rfemur -34.797100 -15.796600 12.290200
thorax -0.694290 -2.964870 -2.310540
rclavicle 0.000000 0.000000
rtibia 55.982399
lfoot -19.305099 34.355301
lhumerus -34.830700 68.061699 28.177200
rthumb 16.333099 -52.515499
root 8.538780 17.655800 0.420882 -171.781998 -42.506401 -175.677002
ltoes 24.472401
lfemur -27.700100 4.786530 10.134200
3
upperback -0.869184 -0.330302 3.440740
rfoot -30.045799 -16.719500
lradius 33.758999
lthumb -7.600480 82.555603
rradius 55.374100
lwrist 6.138900
rhand -29.807100 -23.662001
rhumerus 61.349899 12.784600 -23.567499
lowerneck -2.692390 3.498950 4.034710
lhand -34.436100 52.712101
ltibia 30.365299
head 8.598890 1.448640 -1.218380
rwrist 9.246150
lfingers 7.125020
rtoes -0.577728
lowerback 0.252997 -0.219481 5.902600
rfingers 7.125020
lclavicle -0.000000 0.000000
upperneck 25.864500 3.699770 -2.240510
rfemur -19.740999 -9.340770 9.239270
thorax -1.046120 -0.247863 0.236043
rclavicle -0.000000 0.000000
rtibia 45.961899
lfoot -21.268400 37.665401
lhumerus -5.015750 77.015701 -11.650800
rthumb -3.131190 -53.618801
root 8.176400 18.057501 0.651908 -175.442001 -60.320801 -176.091995
ltoes 20.357201
lfemur -31.950600 3.785760 3.927740
4
upperback -2.507120 -3.041420 2.880860
rfoot -32.637501 -26.368099
lradius 55.810501
lthumb -22.167900 67.834999
rradius 69.406097
lwrist -21.318899
rhand -44.577400 -25.904699
rhumerus 74.444199 -50.840801 -34.044498
lowerneck -5.472290 5.601280 5.295130
lhand -49.561199 39.085999
ltibia 36.569599
head 9.198510 3.062860 0.813719
rwrist 16.084400
lfingers 7.125020
rtoes -6.301550
lowerback -2.759790 -2.104710 8.795290
rfingers 7.125020
lclavicle -0.000000 0.000000
upperneck 26.224400 5.307240 3.667870
rfemur -3.641500 -19.134199 12.679000
thorax -1.349680 -1.672590 -1.971910
rclavicle -0.000000 0.000000
rtibia 33.256302
lfoot -22.940901 44.293201
lhumerus 81.680000 41.496201 34.577900
rthumb -17.377001 -55.147900
root 7.456690 18.103001 1.048490 -318.932007 -85.630997 -30.710800
ltoes 29.476601
lfemur -53.136600 28.022499 -24.109301
5
upperback -3.155820 -3.174470 2.764800
rfoot -32.816502 -34.592701
lradius 69.446800
lthumb -23.883400 65.471397
rradius 102.699997
lwrist -33.325802
rhand -48.458500 -41.180901
rhumerus 93.583801 -57.651001 -83.311401
lowerneck -4.917970 11.145400 10.245300
lhand -51.349098 36.936401
ltibia 47.864601
head 7.628080 7.206190 -0.675337
rwrist 10.207100
lfingers 7.125020
rtoes -6.863780
lowerback -3.417460 -2.170570 9.226630
rfingers 7.125020
lclavicle 0.000000 0.000000
upperneck 19.543600 13.859900 -0.680397
rfemur -1.307290 -16.781500 12.209700
thorax -1.704460 -1.781320 -2.337060
rclavicle 0.000000 0.000000
rtibia 26.882500
lfoot -16.999701 38.513100
lhumerus 68.198402 5.872150 10.044400
rthumb -21.108900 -70.051804
root 6.651380 17.857401 2.134700 -335.742004 -79.232201 -8.549120
ltoes 29.505501
lfemur -65.493599 26.369801 -34.120399
6
upperback -3.186970 0.369186 4.880060
rfoot -22.420500 -42.696301
lradius 80.468102
lthumb -23.787399 70.811600
rradius 119.078003
lwrist -40.141602
rhand -52.240398 -44.298302
rhumerus 47.893398 -42.554199 -78.462700
lowerneck -5.829060 11.557800 10.967400
lhand -51.249001 42.264099
ltibia 46.937401
head 3.930770 7.452220 -4.147900
rwrist 10.896100
lfingers 7.125020
rtoes -20.822500
lowerback -0.790809 0.214821 10.738500
rfingers 7.125020
lclavicle 0.000000 0.000000
upperneck 4.251710 15.372600 -11.203400
rfemur 2.511680 -9.480190 13.168500
thorax -2.854260 -0.076242 -0.926097
rclavicle 0.000000 0.000000
rtibia 32.046799
lfoot -13.669300 14.701600
lhumerus 37.354599 -18.999399 0.993672
rthumb -24.737900 -72.718803
root 5.371040 17.883101 3.411190 -345.932007 -53.372700 8.644800
ltoes 12.840400
lfemur -61.169498 -4.932350 -31.537100
7
upperback -2.114030 7.889120 5.378130
rfoot 21.155100 -3.057200
lradius 78.278603
lthumb -25.849001 76.475304
rradius 97.829697
lwrist -39.421101
rhand -51.448898 -45.443802
rhumerus 16.325100 -9.628550 -92.946404
lowerneck -6.504480 9.987240 10.104200
lhand -53.400101 48.212002
ltibia 48.932201
head 1.618090 6.192520 -3.459180
rwrist 16.616699
lfingers 7.125020
rtoes 5.596620
lowerback 1.261490 5.660020 11.282900
rfingers 7.125020
lclavicle 0.000000 0.000000
upperneck -2.174000 12.657400 -6.879000
rfemur -8.851100 -34.463600 23.950199
thorax -2.186910 3.730270 -0.829397
rclavicle 0.000000 0.000000
rtibia 60.539799
lfoot -9.781210 -1.385730
lhumerus -9.708670 -20.075600 7.890670
rthumb -23.979200 -73.966202
root 2.508940 18.238501 4.199740 -342.200012 -17.236799 4.490770
ltoes 16.790199
lfemur -51.976299 -19.651300 -26.918301
8
upperback -2.946240 6.219510 7.405420
rfoot 26.252199 -3.680310
lradius 66.428596
lthumb -26.928301 73.567200
rradius 96.787399
lwrist -36.868599
rhand -54.018200 -42.604698
rhumerus 11.936200 2.661020 -86.704300
lowerneck -9.558290 5.367320 5.465540
lhand -54.527699 45.465698
ltibia 43.460899
head 2.651860 3.300570 -0.558277
rwrist 20.313101
lfingers 7.125020
rtoes 23.257200
lowerback 0.178260 4.250760 12.316800
rfingers 7.125020
lclavicle 0.000000 -0.000000
upperneck 2.505590 6.493880 0.121795
rfemur -24.133200 -45.949200 19.518999
thorax -2.774550 2.945450 0.776461
rclavicle 0.000000 -0.000000
rtibia 88.408798
lfoot -21.079000 14.210000
lhumerus -18.472799 -6.545840 5.473490
rthumb -26.440701 -70.780502
root -0.306853 18.714800 5.043520 -347.705994 32.690498 -1.688430
ltoes 16.860800
lfemur -30.993401 -5.234500 -33.950802
9
upperback -2.368370 4.934190 7.255650
rfoot 29.494301 -8.976480
lradius 54.288200
lthumb -26.752701 74.906700
rradius 95.523201
lwrist -36.026001
rhand -52.523602 -43.468399
rhumerus 14.234700 3.331500 -83.380997
lowerneck -8.674560 -2.112800 -2.072200
lhand -54.344200 46.778198
ltibia 41.848598
head 0.803639 -1.065150 2.894790
rwrist 18.295601
lfingers 7.125020
rtoes 28.794701
lowerback 1.161970 3.090980 10.768700
rfingers 7.125020
lclavicle -0.000000 0.000000
upperneck -2.664110 -2.517380 8.160000
rfemur -27.476400 -46.368099 12.272900
thorax -2.921960 2.432320 1.390650
rclavicle -0.000000 0.000000
rtibia 85.337402
lfoot -23.323799 13.394800
lhumerus -14.720600 2.958920 5.899700
rthumb -25.009399 -71.851303
root -2.643270 19.006901 6.104480 -364.416992 79.095398 -19.581200
ltoes 4.931880
lfemur -31.209000 -17.096399 -21.637800
10
upperback -1.577840 6.507960 6.717190
rfoot 31.601101 -9.757810
lradius 38.337799
lthumb -23.763800 65.118797
rradius 87.645897
lwrist -30.380501
rhand -50.255699 -38.163399
rhumerus 13.665700 15.712300 -85.325798
lowerneck -5.764300 -7.644110 -6.105790
lhand -51.224300 36.568199
ltibia 38.854698
head 1.233020 -4.627480 4.679350
rwrist 17.921499
lfingers 7.125020
rtoes 27.682699
lowerback 1.482550 4.302280 9.156470
rfingers 7.125020
lclavicle -0.000000 0.000000
upperneck -2.397670 -9.737520 13.434500
rfemur -35.285301 -53.033401 17.974600
thorax -2.286790 3.304600 1.664970
rclavicle -0.000000 0.000000
rtibia 85.120300
lfoot -17.893801 5.475640
lhumerus -18.326900 10.916100 0.617037
rthumb -22.834499 -66.831703
root -3.285600 19.300699 7.288540 -511.082001 74.174301 -164.572006
ltoes 4.749800
lfemur -32.123699 -24.544500 -13.111200
